<?xml version="1.0" standalone="no"?><!DOCTYPE svg PUBLIC "-//W3C//DTD SVG 1.1//EN" "http://www.w3.org/Graphics/SVG/1.1/DTD/svg11.dtd"><svg t="1561428925558" class="icon" viewBox="0 0 1024 1024" version="1.1" xmlns="http://www.w3.org/2000/svg" p-id="844" xmlns:xlink="http://www.w3.org/1999/xlink" width="200" height="200"><defs><style type="text/css"></style></defs><path d="M842.23 433.26c-8.34 0-16.52 0.65-24.62 2.04C799.54 304.36 685.93 204 552.2 204c-54.72 0-107.31 16.44-152.38 47.6l-0.74 0.49c-0.25 0.16-0.41 0.25-0.65 0.41-22.49 15.7-42.37 34.76-59.05 56.52-0.16 0.16-0.25 0.25-0.33 0.41-0.08 0.16-0.16 0.25-0.25 0.41-6.13 8.02-11.78 16.44-16.93 24.95-13.17-2.45-26.75-3.68-40.41-3.68-120.32 0-218.22 97.9-218.22 218.22 0 12.02 0.98 23.88 2.86 35.33 17.26 106 107.8 182.89 215.36 182.89H811.8c77.95 0 146.41-49.57 170.54-123.51l1.15-2.29v-0.65c7.03-17.75 10.63-36.48 10.63-55.86 0-83.76-68.13-151.98-151.89-151.98zM956.9 633.08l-1.06 2.54v0.65C935.23 698.35 877.48 739.9 811.8 739.9H281.47c-93.98 0-173.07-67.15-188.04-159.74-1.72-9.98-2.54-20.37-2.54-30.84 0-105.1 85.47-190.58 190.58-190.58 10.22 0 20.45 0.82 30.43 2.45-18.65 51.12-17.59 107.8 4.42 159.58 2.21 5.23 7.28 8.42 12.68 8.42 1.8 0 3.6-0.33 5.4-1.14 7.03-2.94 10.31-11.04 7.28-18.08-25.85-60.94-18.57-129.64 19.47-183.95 0.16-0.25 0.33-0.41 0.49-0.65 14.07-19.96 31.74-36.81 52.35-50.06 0.25-0.16 0.41-0.33 0.65-0.41l1.14-0.74c40.16-27.81 87.35-42.53 136.43-42.53 124.73 0 229.92 97.25 239.57 221.49l1.31 16.77 16.11-4.5c10.63-3.03 21.76-4.5 33.04-4.5 68.54 0 124.24 55.78 124.24 124.32-0.01 16.63-3.2 32.74-9.58 47.87zM486.03 875.1c0 22.59-18.32 40.9-40.9 40.9s-40.9-18.3-40.9-40.9c0-7.45 2.01-14.42 5.5-20.44h-0.01l0.42-0.72 0.02-0.05 34.97-60.59 34.97 60.59 0.02 0.05 0.42 0.72h-0.01c3.49 6.02 5.5 12.99 5.5 20.44zM674.15 875.1c0 22.59-18.3 40.9-40.9 40.9-22.58 0-40.9-18.3-40.9-40.9 0-7.45 2.01-14.42 5.5-20.44h-0.01l0.42-0.72 0.02-0.05 34.97-60.59 34.98 60.59 0.02 0.04 0.42 0.73h-0.01c3.48 6.02 5.49 13 5.49 20.44z" fill="#637AA6" p-id="845"></path></svg>